<svg width="56" height="56" viewBox="0 0 56 56" fill="none" xmlns="http://www.w3.org/2000/svg">
<path fill-rule="evenodd" clip-rule="evenodd" d="M7.77508 50.4018L3.28125 0H52.6612L48.1626 50.3935L27.9414 56L7.77508 50.4018Z" fill="black"/>
<path fill-rule="evenodd" clip-rule="evenodd" d="M28.0127 51.7121L44.3322 47.2225L48.1558 4.19751H28.0127V51.7121Z" fill="black"/>
<path fill-rule="evenodd" clip-rule="evenodd" d="M13.5676 22.7147L14.1089 28.8872L28.0127 22.7147V16.5322L13.5676 22.7147Z" fill="white"/>
<path fill-rule="evenodd" clip-rule="evenodd" d="M43.4116 9.93286L28.0127 16.5324V22.7149L42.8807 16.1054L43.4116 9.93286Z" fill="white"/>
<path fill-rule="evenodd" clip-rule="evenodd" d="M28.0127 38.8649L27.9649 38.8721L21.0697 37.0204L20.6192 32.0969H14.4135L15.2795 41.7964L27.9636 45.3084L28.0127 45.2968V38.8649Z" fill="white"/>
<path fill-rule="evenodd" clip-rule="evenodd" d="M28.0127 22.7148V28.8873H35.5619L34.8758 36.9574L28.0127 38.8704V45.3017L40.6547 41.7897L42.3195 22.7148H28.0127Z" fill="white"/>
<path fill-rule="evenodd" clip-rule="evenodd" d="M28.0127 22.7148H13.5676L14.1089 28.8873H28.0127V22.7148Z" fill="white"/>
<path fill-rule="evenodd" clip-rule="evenodd" d="M28.0127 16.1054V9.93286H27.95H12.4701L13.0179 16.1054H28.0127Z" fill="white"/>
<path fill-rule="evenodd" clip-rule="evenodd" d="M28.0127 9.93286V16.028V16.1054H42.8807L43.4116 9.93286H28.0127Z" fill="white"/>
</svg>
