<svg width="57" height="56" viewBox="0 0 57 56" fill="none" xmlns="http://www.w3.org/2000/svg">
<path fill-rule="evenodd" clip-rule="evenodd" d="M8.27494 50.402L3.78125 0H53.1592L48.6608 50.3941L28.44 56L8.27494 50.402Z" fill="black"/>
<path fill-rule="evenodd" clip-rule="evenodd" d="M28.4702 51.7151L44.8096 47.1852L48.6538 4.12109H28.4702V51.7151Z" fill="black"/>
<path d="M20.2903 22.8145H28.4702V28.996H14.637L12.9697 10.3027H28.4702V16.4844H19.7254L20.2903 22.8145Z" fill="white"/>
<path d="M28.4431 38.876L28.4702 38.8688V45.3002L28.4418 45.3081L15.7792 41.7929L14.9132 32.0869H21.1185L21.5586 37.017L28.4431 38.876Z" fill="white"/>
<path d="M28.4489 10.3027H43.9339L43.3804 16.4844H28.4489V10.3027Z" fill="white"/>
<path d="M28.4489 28.996V22.8145H42.8179L42.6671 24.4744L41.1215 41.7929L28.4489 45.3051V38.8739L35.3433 37.0131L36.0608 28.996H28.4489Z" fill="white"/>
</svg>
