<svg width="57" height="56" viewBox="0 0 57 56" fill="none" xmlns="http://www.w3.org/2000/svg">
<path d="M49.7333 25.7834L30.7167 6.76671C30.1333 6.18337 29.3167 5.83337 28.5 5.83337C27.6833 5.83337 26.8667 6.18337 26.2833 6.76671L22.2 10.85L26.9833 15.6334C27.45 15.4 27.9167 15.2834 28.5 15.2834C30.4833 15.2834 32 16.8 32 18.7834C32 19.3667 31.8833 19.8334 31.65 20.3L36.3167 24.9667C36.7833 24.7334 37.25 24.6167 37.8333 24.6167C39.8167 24.6167 41.3333 26.1334 41.3333 28.1167C41.3333 30.1 39.8167 31.6167 37.8333 31.6167C35.85 31.6167 34.3333 30.1 34.3333 28.1167C34.3333 27.5334 34.45 27.0667 34.6833 26.6L30.0167 21.9334C29.9 21.9334 29.7833 22.05 29.6667 22.05V34.1834C31.0667 34.65 32 35.9334 32 37.45C32 39.4334 30.4833 40.95 28.5 40.95C26.5167 40.95 25 39.4334 25 37.45C25 35.9334 25.9333 34.65 27.3333 34.1834V21.9334C25.9333 21.4667 25 20.1834 25 18.6667C25 18.0834 25.1167 17.6167 25.35 17.15L20.5667 12.3667L7.26666 25.7834C6.68333 26.3667 6.33333 27.1834 6.33333 28C6.33333 28.8167 6.68333 29.6334 7.26666 30.2167L26.2833 49.2334C26.8667 49.8167 27.6833 50.1667 28.5 50.1667C29.3167 50.1667 30.1333 49.8167 30.7167 49.2334L49.7333 30.2167C50.3167 29.6334 50.6667 28.8167 50.6667 28C50.6667 27.1834 50.3167 26.3667 49.7333 25.7834Z" fill="black"/>
</svg>
