<svg width="57" height="56" viewBox="0 0 57 56" fill="none" xmlns="http://www.w3.org/2000/svg">
<path d="M26.6662 0.0150698C26.5457 0.0260164 26.1626 0.0643294 25.8177 0.0916959C17.8638 0.808697 10.4136 5.09976 5.69492 11.6951C3.06735 15.3622 1.3868 19.5219 0.751808 23.9279C0.52737 25.4659 0.5 25.9202 0.5 28.0055C0.5 30.0908 0.52737 30.5451 0.751808 32.0831C2.27361 42.5973 9.7567 51.4312 19.9057 54.7042C21.7231 55.2898 23.639 55.6894 25.8177 55.9302C26.6662 56.0233 30.3338 56.0233 31.1823 55.9302C34.943 55.5142 38.1289 54.5838 41.2711 52.9801C41.7528 52.7338 41.8458 52.6681 41.7802 52.6134C41.7364 52.5806 39.6836 49.8275 37.2202 46.4997L32.7424 40.4517L27.1315 32.1488C24.0441 27.584 21.5041 23.8513 21.4822 23.8513C21.4603 23.8458 21.4384 27.5348 21.4275 32.0393C21.411 39.9263 21.4056 40.2438 21.307 40.4299C21.1647 40.698 21.0552 40.8075 20.8253 40.9279C20.6501 41.0155 20.4969 41.0319 19.6703 41.0319H18.7233L18.4715 40.8732C18.3072 40.7692 18.1868 40.6324 18.1047 40.4736L17.9897 40.2273L18.0007 29.2534L18.0171 18.274L18.1868 18.0605C18.2744 17.9456 18.4605 17.7978 18.5919 17.7266C18.8163 17.6172 18.9039 17.6062 19.8509 17.6062C20.9676 17.6062 21.1538 17.65 21.4439 17.9675C21.526 18.055 24.5641 22.6307 28.1989 28.1423C31.8337 33.6539 36.8042 41.1797 39.2457 44.8742L43.6797 51.5899L43.9041 51.4421C45.8912 50.1504 47.9933 48.3114 49.6574 46.3957C53.1991 42.3291 55.4818 37.3703 56.2482 32.0831C56.4726 30.5451 56.5 30.0908 56.5 28.0055C56.5 25.9202 56.4726 25.4659 56.2482 23.9279C54.7264 13.4137 47.2433 4.57979 37.0943 1.30677C35.3043 0.726598 33.3993 0.327047 31.2644 0.0862226C30.7389 0.0314897 27.1205 -0.0287165 26.6662 0.0150698ZM38.1289 16.9494C38.3917 17.0808 38.6052 17.3326 38.6818 17.5953C38.7256 17.7376 38.7366 20.7807 38.7256 27.6388L38.7092 37.4798L36.9739 34.8197L35.2331 32.1597V25.0061C35.2331 20.3812 35.255 17.7814 35.2879 17.6555C35.3755 17.349 35.5671 17.1082 35.8298 16.9659C36.0543 16.8509 36.1364 16.84 36.9958 16.84C37.806 16.84 37.9483 16.8509 38.1289 16.9494Z" fill="black"/>
</svg>
