<svg width="56" height="56" viewBox="0 0 56 56" fill="none" xmlns="http://www.w3.org/2000/svg">
<path fill-rule="evenodd" clip-rule="evenodd" d="M28.0496 55.2423C27.2974 55.2423 26.5953 55.0417 25.9434 54.6907L19.2737 50.729C18.2707 50.1773 18.7722 49.9767 19.0731 49.8764C20.4271 49.4251 20.6778 49.3248 22.082 48.5225C22.2324 48.4222 22.433 48.4723 22.5835 48.5726L27.6985 51.6316C27.8991 51.7319 28.1499 51.7319 28.3003 51.6316L48.3093 40.0475C48.5099 39.9472 48.6102 39.7466 48.6102 39.4958V16.3776C48.6102 16.1269 48.5099 15.9263 48.3093 15.826L28.3003 4.29198C28.0997 4.19168 27.849 4.19168 27.6985 4.29198L7.68952 15.826C7.48892 15.9263 7.38863 16.177 7.38863 16.3776V39.4958C7.38863 39.6964 7.48892 39.9472 7.68952 40.0475L13.1556 43.2068C16.1144 44.7112 17.9698 42.956 17.9698 41.2009V18.3835C17.9698 18.0827 18.2206 17.7818 18.5716 17.7818H21.1292C21.4301 17.7818 21.7309 18.0325 21.7309 18.3835V41.2009C21.7309 45.1625 19.5746 47.4693 15.8135 47.4693C14.6601 47.4693 13.7574 47.4693 11.1999 46.2157L5.93434 43.2068C4.63049 42.4546 3.82812 41.0504 3.82812 39.546V16.4278C3.82812 14.9233 4.63049 13.5192 5.93434 12.767L25.9434 1.1828C27.1971 0.480732 28.9021 0.480732 30.1558 1.1828L50.1648 12.767C51.4687 13.5192 52.271 14.9233 52.271 16.4278V39.546C52.271 41.0504 51.4687 42.4546 50.1648 43.2068L30.1558 54.7909C29.5039 55.0918 28.7516 55.2423 28.0496 55.2423ZM34.2178 39.3454C25.4419 39.3454 23.6366 35.3335 23.6366 31.9235C23.6366 31.6226 23.8873 31.3217 24.2383 31.3217H26.846C27.1469 31.3217 27.3977 31.5223 27.3977 31.8232C27.7988 34.481 28.9522 35.7849 34.2679 35.7849C38.4804 35.7849 40.2857 34.8321 40.2857 32.5754C40.2857 31.2716 39.7842 30.3188 33.2148 29.6668C27.7487 29.1152 24.3386 27.9117 24.3386 23.5488C24.3386 19.4868 27.7487 17.0797 33.4656 17.0797C39.8845 17.0797 43.0438 19.2862 43.445 24.1004C43.445 24.2509 43.3948 24.4013 43.2946 24.5517C43.1943 24.652 43.0438 24.7523 42.8934 24.7523H40.2857C40.0349 24.7523 39.7842 24.5517 39.734 24.301C39.1323 21.5429 37.5777 20.6402 33.4656 20.6402C28.8519 20.6402 28.3003 22.2449 28.3003 23.4485C28.3003 24.9028 28.9522 25.3541 35.1706 26.1565C41.3388 26.9588 44.2474 28.1122 44.2474 32.425C44.1972 36.838 40.5866 39.3454 34.2178 39.3454Z" fill="black"/>
</svg>
