<svg width="57" height="56" viewBox="0 0 57 56" fill="none" xmlns="http://www.w3.org/2000/svg">
<g clip-path="url(#clip0_9_702)">
<path d="M46.5432 19.2114C45.9623 19.0115 45.3603 18.8223 44.7405 18.6433C44.8424 18.2276 44.9359 17.8172 45.019 17.4138C46.3837 10.7898 45.4914 5.45349 42.4447 3.69655C39.5233 2.01187 34.7456 3.76841 29.9203 7.9677C29.4563 8.3715 28.991 8.79903 28.5259 9.24708C28.216 8.95064 27.9066 8.66416 27.598 8.39014C22.541 3.89999 17.4721 2.00778 14.4284 3.76981C11.5098 5.45937 10.6455 10.476 11.8738 16.7536C11.9924 17.36 12.1311 17.9792 12.2879 18.6088C11.5705 18.8124 10.8779 19.0295 10.2152 19.2605C4.28642 21.3275 0.5 24.5671 0.5 27.9274C0.5 31.3979 4.56472 34.8789 10.74 36.9896C11.2274 37.1562 11.7331 37.3137 12.2542 37.4632C12.085 38.1441 11.9379 38.8114 11.8144 39.4622C10.6432 45.6308 11.5578 50.5289 14.4687 52.2078C17.4753 53.9417 22.5212 52.1595 27.4347 47.8645C27.8231 47.525 28.2128 47.165 28.6033 46.7876C29.1093 47.2749 29.6146 47.7361 30.1172 48.1687C34.8765 52.2643 39.5771 53.918 42.4852 52.2345C45.4888 50.4957 46.465 45.2339 45.1977 38.8321C45.1009 38.3432 44.9882 37.8437 44.8617 37.3353C45.2161 37.2305 45.564 37.1224 45.9032 37.0099C52.323 34.8829 56.5 31.4443 56.5 27.9274C56.5 24.5549 52.5915 21.2935 46.5432 19.2114ZM45.1508 34.7392C44.8446 34.8405 44.5304 34.9385 44.2102 35.0335C43.5015 32.7898 42.545 30.404 41.3745 27.939C42.4915 25.5328 43.411 23.1775 44.0999 20.9483C44.6728 21.1141 45.2288 21.2889 45.7645 21.4734C50.9467 23.2574 54.1077 25.895 54.1077 27.9274C54.1077 30.0922 50.6939 32.9025 45.1508 34.7392ZM42.8508 39.2967C43.4112 42.1275 43.4913 44.6868 43.1201 46.6876C42.7865 48.4854 42.1158 49.6841 41.2865 50.1641C39.5216 51.1856 35.7476 49.8578 31.6774 46.3553C31.2108 45.9538 30.7408 45.525 30.2693 45.0713C31.8472 43.3456 33.4243 41.3393 34.9634 39.1112C37.6706 38.871 40.2283 38.4782 42.5477 37.942C42.6619 38.4029 42.7634 38.8548 42.8508 39.2967ZM19.5917 49.9876C17.8674 50.5965 16.4941 50.614 15.664 50.1353C13.8976 49.1165 13.1633 45.1837 14.1649 39.9083C14.2797 39.3042 14.4162 38.6836 14.5736 38.0492C16.8676 38.5565 19.4066 38.9215 22.1202 39.1415C23.6697 41.3218 25.2923 43.3258 26.9275 45.0806C26.5702 45.4255 26.2144 45.7538 25.8605 46.0632C23.6878 47.9624 21.5105 49.3099 19.5917 49.9876ZM11.5138 34.7259C8.78315 33.7926 6.5281 32.5796 4.98238 31.256C3.59345 30.0665 2.8922 28.8856 2.8922 27.9274C2.8922 25.8882 5.93232 23.2873 11.0027 21.5195C11.6179 21.305 12.262 21.1028 12.9303 20.9129C13.631 23.1924 14.5503 25.5756 15.6596 27.9856C14.5359 30.4313 13.6036 32.8525 12.896 35.1587C12.4195 35.0217 11.9579 34.8776 11.5138 34.7259ZM14.2215 16.2942C13.1691 10.9157 13.8681 6.85837 15.6269 5.84025C17.5004 4.75564 21.6432 6.30206 26.0095 10.1791C26.2886 10.4269 26.5688 10.6863 26.8498 10.9546C25.2227 12.7017 23.615 14.6907 22.0793 16.8581C19.4455 17.1022 16.9244 17.4943 14.6065 18.0195C14.4608 17.4332 14.3317 16.8573 14.2215 16.2942ZM38.3774 22.2589C37.8233 21.3018 37.2544 20.3673 36.6745 19.4583C38.4612 19.6842 40.1731 19.984 41.7808 20.351C41.2981 21.8978 40.6966 23.5151 39.9884 25.173C39.4805 24.2086 38.9432 23.2363 38.3774 22.2589ZM28.5267 12.6643C29.6302 13.8597 30.7352 15.1944 31.8221 16.6426C30.7268 16.5909 29.618 16.5639 28.5 16.5639C27.3926 16.5639 26.2919 16.5903 25.2034 16.6411C26.2914 15.2064 27.406 13.8735 28.5267 12.6643ZM18.6129 22.2755C18.0594 23.2353 17.5321 24.2024 17.0321 25.1712C16.3354 23.5191 15.7395 21.8944 15.2526 20.3256C16.8504 19.9681 18.5542 19.6757 20.3296 19.4541C19.7415 20.3715 19.1679 21.3129 18.6129 22.2753V22.2755ZM20.3807 36.5713C18.5464 36.3666 16.817 36.0893 15.2196 35.7416C15.7142 34.1449 16.3234 32.4855 17.0348 30.7977C17.5361 31.7659 18.0655 32.7334 18.6224 33.6953H18.6225C19.1898 34.6753 19.7775 35.6352 20.3807 36.5713ZM28.5929 43.3591C27.4591 42.1358 26.3281 40.7825 25.2235 39.3269C26.2958 39.369 27.389 39.3905 28.5 39.3905C29.6414 39.3905 30.7698 39.3648 31.8804 39.3153C30.7899 40.7972 29.6889 42.1525 28.5929 43.3591ZM40.0113 30.7117C40.7598 32.4177 41.3907 34.0684 41.8917 35.638C40.268 36.0084 38.515 36.3067 36.6679 36.5284C37.2492 35.6072 37.8231 34.6566 38.387 33.6789C38.9575 32.6896 39.4991 31.6989 40.0113 30.7117ZM36.3148 32.4837C35.4394 34.0015 34.5407 35.4505 33.6283 36.8182C31.9665 36.937 30.2498 36.9982 28.5 36.9982C26.7573 36.9982 25.0622 36.9441 23.4298 36.8381C22.4807 35.4525 21.5624 33.9992 20.6926 32.4968H20.6928C19.8253 30.9984 19.0269 29.4874 18.3034 27.9848C19.0267 26.4787 19.823 24.966 20.6855 23.4703L20.6853 23.4706C21.5502 21.9709 22.4603 20.5248 23.4007 19.1478C25.0662 19.0219 26.774 18.9562 28.4999 18.9562H28.5C30.2337 18.9562 31.9437 19.0224 33.6087 19.1494C34.5347 20.5163 35.4387 21.9578 36.3069 23.4577C37.185 24.9744 37.9916 26.477 38.721 27.9508C37.9938 29.4499 37.1889 30.9677 36.3148 32.4837ZM41.2498 5.76908C43.125 6.8505 43.8543 11.2119 42.6761 16.931C42.6009 17.2959 42.5163 17.6676 42.4244 18.0443C40.1011 17.5082 37.5782 17.1093 34.9368 16.8615C33.398 14.6702 31.8035 12.6781 30.2029 10.9535C30.6332 10.5395 31.063 10.1448 31.4909 9.77229C35.6252 6.17437 39.4892 4.75384 41.2498 5.76908ZM28.5 22.9268C31.2617 22.9268 33.5006 25.1656 33.5006 27.9274C33.5006 30.6891 31.2617 32.928 28.5 32.928C25.7383 32.928 23.4994 30.6891 23.4994 27.9274C23.4994 25.1656 25.7383 22.9268 28.5 22.9268Z" fill="black"/>
</g>
<defs>
<clipPath id="clip0_9_702">
<rect width="56" height="56" fill="white" transform="translate(0.5)"/>
</clipPath>
</defs>
</svg>
