<svg width="57" height="56" viewBox="0 0 57 56" fill="none" xmlns="http://www.w3.org/2000/svg">
<path d="M28.5 11.1562C21.0333 11.1562 16.3667 14.8896 14.5 22.3562C17.3 18.6229 20.5667 17.2229 24.3 18.1562C26.4301 18.6888 27.9525 20.2341 29.6377 21.9447C32.383 24.7312 35.5603 27.9563 42.5 27.9563C49.9667 27.9563 54.6333 24.2229 56.5 16.7562C53.7 20.4896 50.4333 21.8896 46.7 20.9563C44.5699 20.4237 43.0475 18.8784 41.3623 17.1679C38.617 14.3813 35.4397 11.1562 28.5 11.1562ZM14.5 27.9563C7.03333 27.9563 2.36667 31.6896 0.5 39.1562C3.3 35.4229 6.56667 34.0229 10.3 34.9563C12.4301 35.4888 13.9525 37.0341 15.6377 38.7446C18.383 41.5312 21.5603 44.7563 28.5 44.7563C35.9667 44.7563 40.6333 41.0229 42.5 33.5562C39.7 37.2896 36.4333 38.6896 32.7 37.7563C30.5699 37.2237 29.0475 35.6784 27.3623 33.9678C24.617 31.1813 21.4397 27.9563 14.5 27.9563Z" fill="black"/>
</svg>
