<svg width="56" height="56" viewBox="0 0 56 56" fill="none" xmlns="http://www.w3.org/2000/svg">
<g clip-path="url(#clip0_9_687)">
<path d="M20.7389 43.3079C20.7389 43.3079 18.5989 44.5523 22.2618 44.9735C26.6994 45.4797 28.9674 45.4071 33.8576 44.4816C33.8576 44.4816 35.1433 45.2877 36.9389 45.986C25.9763 50.6844 12.1283 45.7138 20.7389 43.3079Z" fill="black"/>
<path d="M19.3996 37.1768C19.3996 37.1768 16.9994 38.9534 20.6651 39.3326C25.4054 39.8216 29.149 39.8616 35.6268 38.6143C35.6268 38.6143 36.5228 39.5226 37.9316 40.0194C24.6771 43.8952 9.91405 40.325 19.3996 37.1768Z" fill="black"/>
<path d="M30.6925 26.7764C33.3937 29.8863 29.9828 32.6848 29.9828 32.6848C29.9828 32.6848 36.8415 29.1441 33.6916 24.7103C30.7497 20.5755 28.4936 18.5211 40.7071 11.4377C40.7071 11.4377 21.536 16.2258 30.6925 26.7764Z" fill="black"/>
<path d="M45.1914 47.8428C45.1914 47.8428 46.7751 49.1476 43.4473 50.1571C37.1196 52.074 17.1105 52.6529 11.552 50.2335C9.55392 49.3642 13.301 48.1579 14.4796 47.9048C15.7089 47.6383 16.4113 47.6879 16.4113 47.6879C14.1892 46.1225 2.04853 50.7616 10.2445 52.0902C32.596 55.715 50.9891 50.4579 45.1914 47.8428Z" fill="black"/>
<path d="M21.7683 30.8243C21.7683 30.8243 11.5904 33.2417 18.1641 34.1196C20.9397 34.4912 26.4728 34.4071 31.6267 33.9753C35.8388 33.62 40.0682 32.8645 40.0682 32.8645C40.0682 32.8645 38.583 33.5006 37.5084 34.2343C27.173 36.9525 7.20674 35.688 12.9548 32.9075C17.8159 30.5577 21.7683 30.8243 21.7683 30.8243Z" fill="black"/>
<path d="M40.0261 41.0297C50.5326 35.5702 45.6748 30.3236 42.2841 31.0304C41.453 31.2034 41.0825 31.3533 41.0825 31.3533C41.0825 31.3533 41.391 30.87 41.9803 30.6608C48.6881 28.3025 53.8469 37.6161 39.8149 41.3049C39.8149 41.3051 39.9775 41.1597 40.0261 41.0297Z" fill="black"/>
<path d="M33.6919 0C33.6919 0 39.5105 5.82062 28.1731 14.7711C19.0817 21.9509 26.1 26.0446 28.1693 30.7219C22.8625 25.9339 18.968 21.7189 21.5808 17.796C25.4156 12.0376 36.0396 9.24571 33.6919 0Z" fill="black"/>
<path d="M22.8004 55.8239C32.8854 56.4695 48.3719 55.4658 48.7387 50.6938C48.7387 50.6938 48.0336 52.5028 40.404 53.9395C31.7963 55.5593 21.18 55.3702 14.8833 54.3321C14.8834 54.3319 16.1723 55.3989 22.8004 55.8239Z" fill="black"/>
</g>
<defs>
<clipPath id="clip0_9_687">
<rect width="56" height="56" fill="white"/>
</clipPath>
</defs>
</svg>
