<?xml version="1.0" standalone="no"?>
<!DOCTYPE svg PUBLIC "-//W3C//DTD SVG 20010904//EN"
 "http://www.w3.org/TR/2001/REC-SVG-20010904/DTD/svg10.dtd">
<svg version="1.0" xmlns="http://www.w3.org/2000/svg"
 width="558.000000pt" height="654.000000pt" viewBox="0 0 558.000000 654.000000"
 preserveAspectRatio="xMidYMid meet">

<g transform="translate(0.000000,654.000000) scale(0.100000,-0.100000)"
fill="#000000" stroke="none">
<path d="M2140 5800 c0 -5 14 -10 30 -10 17 0 30 -4 30 -10 0 -5 9 -10 20 -10
11 0 20 -4 20 -10 0 -5 8 -10 18 -10 10 0 24 -9 32 -20 8 -11 22 -20 32 -20
10 0 18 -7 18 -16 0 -9 14 -29 30 -44 17 -15 30 -35 30 -44 0 -9 5 -16 10 -16
6 0 10 -18 10 -40 0 -22 5 -40 10 -40 6 0 10 -33 10 -80 0 -47 4 -80 10 -80 6
0 10 -117 10 -330 l0 -330 36 0 c67 0 64 28 64 -564 0 -351 3 -536 10 -536 6
0 10 -8 10 -18 0 -10 9 -24 20 -32 11 -8 20 -22 20 -32 0 -10 5 -18 10 -18 6
0 10 -4 10 -10 0 -5 -18 -10 -40 -10 l-40 0 0 -220 0 -220 -70 0 -70 0 0 220
0 220 -1100 0 c-727 0 -1100 -3 -1100 -10 0 -5 14 -10 30 -10 17 0 30 -4 30
-10 0 -5 9 -10 20 -10 11 0 20 -4 20 -10 0 -5 9 -10 20 -10 11 0 20 -4 20 -10
0 -5 8 -10 18 -10 10 0 24 -9 32 -20 8 -11 20 -20 28 -20 18 0 62 -46 62 -65
0 -8 5 -15 10 -15 6 0 10 -9 10 -20 0 -11 5 -20 10 -20 6 0 10 -9 10 -20 0
-11 5 -20 10 -20 6 0 10 -18 10 -40 0 -22 5 -40 10 -40 7 0 10 -423 10 -1250
0 -827 -3 -1250 -10 -1250 -5 0 -10 -18 -10 -40 0 -22 -4 -40 -10 -40 -5 0
-10 -9 -10 -20 0 -11 -4 -20 -10 -20 -5 0 -10 -9 -10 -20 0 -11 -4 -20 -10
-20 -5 0 -10 -7 -10 -15 0 -19 -64 -85 -82 -85 -8 0 -20 -9 -28 -20 -8 -12
-26 -20 -42 -20 -15 0 -28 -4 -28 -10 0 -5 -9 -10 -20 -10 -11 0 -20 -4 -20
-10 0 -5 -13 -10 -30 -10 -16 0 -30 -4 -30 -10 0 -7 263 -10 770 -10 507 0
770 3 770 10 0 6 -13 10 -30 10 -16 0 -30 5 -30 10 0 6 -9 10 -20 10 -11 0
-20 5 -20 10 0 6 -9 10 -20 10 -11 0 -20 5 -20 10 0 6 -8 10 -18 10 -10 0 -24
9 -32 20 -8 11 -20 20 -28 20 -18 0 -62 46 -62 65 0 8 -4 15 -10 15 -5 0 -10
9 -10 20 0 11 -4 20 -10 20 -5 0 -10 9 -10 20 0 11 -4 20 -10 20 -5 0 -10 18
-10 40 0 22 -4 40 -10 40 -6 0 -10 127 -10 360 l0 360 660 0 c433 0 660 -3
660 -10 0 -6 30 -10 70 -10 40 0 70 -4 70 -10 0 -5 14 -10 30 -10 17 0 30 -4
30 -10 0 -5 7 -10 15 -10 20 0 125 -105 125 -125 0 -8 5 -15 10 -15 6 0 10
-13 10 -30 0 -16 5 -30 10 -30 6 0 10 -9 10 -20 0 -11 5 -20 10 -20 7 0 10
203 10 590 0 387 -3 590 -10 590 -5 0 -10 -9 -10 -20 0 -11 -4 -20 -10 -20 -5
0 -10 -9 -10 -20 0 -11 -4 -20 -10 -20 -5 0 -10 -9 -10 -20 0 -11 -4 -20 -10
-20 -5 0 -10 -7 -10 -15 0 -20 -85 -105 -105 -105 -8 0 -15 -4 -15 -10 0 -5
-13 -10 -30 -10 -16 0 -30 -4 -30 -10 0 -7 -250 -10 -730 -10 l-730 0 0 470 0
470 940 0 c620 0 940 -3 940 -10 0 -5 23 -10 50 -10 28 0 50 -4 50 -10 0 -5 9
-10 20 -10 11 0 20 -4 20 -10 0 -5 13 -10 28 -10 16 0 34 -8 42 -20 8 -11 20
-20 28 -20 17 0 82 -65 82 -82 0 -8 9 -20 20 -28 11 -8 20 -22 20 -32 0 -10 5
-18 10 -18 6 0 10 -13 10 -30 0 -16 5 -30 10 -30 6 0 10 -9 10 -20 0 -11 5
-20 10 -20 6 0 10 -13 10 -30 0 -16 5 -30 10 -30 7 0 10 177 10 510 l0 510
-290 0 -290 0 0 230 0 230 640 0 c420 0 640 -3 640 -10 0 -5 14 -10 30 -10 17
0 30 -4 30 -10 0 -5 7 -10 15 -10 20 0 125 -105 125 -125 0 -8 5 -15 10 -15 6
0 10 -13 10 -30 0 -16 5 -30 10 -30 7 0 10 173 10 500 0 327 -3 500 -10 500
-5 0 -10 -13 -10 -30 0 -16 -4 -30 -10 -30 -5 0 -10 -7 -10 -15 0 -20 -105
-125 -125 -125 -8 0 -15 -4 -15 -10 0 -5 -13 -10 -30 -10 -16 0 -30 -4 -30
-10 0 -7 -220 -10 -640 -10 l-640 0 0 406 c0 338 2 408 14 420 12 12 135 14
820 14 531 0 806 -3 806 -10 0 -5 23 -10 50 -10 28 0 50 -4 50 -10 0 -5 14
-10 30 -10 17 0 30 -4 30 -10 0 -5 9 -10 20 -10 11 0 20 -4 20 -10 0 -5 7 -10
15 -10 20 0 105 -85 105 -105 0 -8 5 -15 10 -15 6 0 10 -9 10 -20 0 -11 5 -20
10 -20 6 0 10 -9 10 -20 0 -11 5 -20 10 -20 6 0 10 -13 10 -30 0 -16 5 -30 10
-30 7 0 10 150 10 430 l0 430 -1520 0 c-1007 0 -1520 -3 -1520 -10z"/>
</g>
</svg>
