<svg width="57" height="56" viewBox="0 0 57 56" fill="none" xmlns="http://www.w3.org/2000/svg">
<g clip-path="url(#clip0_9_699)">
<path d="M28.2312 0.21875C14.0492 0.218751 14.9348 6.36895 14.9348 6.36895L14.9506 12.7405H28.4842V14.6535H9.5751C9.5751 14.6535 0.5 13.6243 0.5 27.9342C0.499999 42.244 8.42095 41.7365 8.42095 41.7365H13.1482V35.0962C13.1482 35.0962 12.8934 27.1753 20.9427 27.1753H34.3656C34.3656 27.1753 41.9071 27.2972 41.9071 19.8867V7.63377C41.9071 7.63377 43.0521 0.21875 28.2312 0.21875ZM20.7688 4.50333C22.1153 4.50333 23.2036 5.59162 23.2036 6.93812C23.2036 8.28461 22.1153 9.3729 20.7688 9.3729C19.4223 9.3729 18.334 8.28461 18.334 6.93812C18.334 5.59162 19.4223 4.50333 20.7688 4.50333Z" fill="url(#paint0_linear_9_699)"/>
<path d="M28.634 55.793C42.8161 55.793 41.9305 49.6428 41.9305 49.6428L41.9147 43.2712H28.3811V41.3582H47.2901C47.2901 41.3582 56.3652 42.3874 56.3652 28.0775C56.3652 13.7677 48.4443 14.2752 48.4443 14.2752H43.717V20.9155C43.717 20.9155 43.9718 28.8364 35.9226 28.8364H22.4996C22.4996 28.8364 14.9581 28.7145 14.9581 36.125V48.3779C14.9581 48.3779 13.8131 55.793 28.634 55.793ZM36.0965 51.5084C34.75 51.5084 33.6617 50.4201 33.6617 49.0736C33.6617 47.7271 34.75 46.6388 36.0965 46.6388C37.443 46.6388 38.5313 47.7271 38.5313 49.0736C38.5313 50.4201 37.443 51.5084 36.0965 51.5084Z" fill="url(#paint1_linear_9_699)"/>
</g>
<defs>
<linearGradient id="paint0_linear_9_699" x1="5.86875" y1="5.21751" x2="33.5535" y2="32.6261" gradientUnits="userSpaceOnUse">
<stop/>
<stop offset="1"/>
</linearGradient>
<linearGradient id="paint1_linear_9_699" x1="22.8617" y1="22.8174" x2="52.5922" y2="50.9226" gradientUnits="userSpaceOnUse">
<stop/>
<stop offset="1"/>
</linearGradient>
<clipPath id="clip0_9_699">
<rect width="56" height="56" fill="white" transform="translate(0.5)"/>
</clipPath>
</defs>
</svg>
